<?xml version="1.0" encoding="UTF-8"?>
<!DOCTYPE svg PUBLIC "-//W3C//DTD SVG 1.1//EN" "http://www.w3.org/Graphics/SVG/1.1/DTD/svg11.dtd">
<!-- Creator: CorelDRAW 2020 (64-Bit) -->
<svg xmlns="http://www.w3.org/2000/svg" xml:space="preserve" width="25.3654mm" height="25.3654mm" version="1.1" style="shape-rendering:geometricPrecision; text-rendering:geometricPrecision; image-rendering:optimizeQuality; fill-rule:evenodd; clip-rule:evenodd"
viewBox="0 0 2507.5 2507.5"
 xmlns:xlink="http://www.w3.org/1999/xlink"
 xmlns:xodm="http://www.corel.com/coreldraw/odm/2003">
 <defs>
  <style type="text/css">
   <![CDATA[
    .fil1 {fill:#106510d0}
    .fil0 {fill:#ffffff80}
   ]]>
  </style>
 </defs>
 <g id="Capa_x0020_1">
  <metadata id="CorelCorpID_0Corel-Layer"/>
  <g id="_1645672008192">
   <circle class="fil0" cx="1249.17" cy="1252.91" r="1222.29"/>
   <path class="fil1" d="M2389 1322.9c0,-32.19 -9.35,-59.54 -15.58,-83.67 -14.02,-41.85 -37.38,-80.46 -66.97,-112.65 -21.81,-24.13 -49.85,-45.05 -82.56,-62.75l-1.56 0c-35.83,-14.48 -74.76,-24.13 -116.83,-24.13l-1.55 0c-43.62,0 -84.13,9.65 -121.5,27.35l0 -162.53 376.17 0c34.81,110.2 53.62,227.51 53.62,349.23 0,79.64 -8.03,157.42 -23.36,232.53 0.09,-3.93 0.13,-7.97 0.13,-12.12 0,-16.09 0,-117.47 0,-151.26zm-1678.8 -640.43l-464.41 0c199.15,-350.63 575.92,-587.18 1007.97,-587.18 36.79,0 73.18,1.79 109.1,5.14l-562.29 768.74c-64.25,88.53 -137.75,209.11 -133.57,384.59 0.33,13.68 1.13,27.25 2.32,40.7 -36.81,-64.38 -94.04,-108.29 -152.88,-134.07l193.76 -271.94 0 -205.97zm-558.16 212.41l318.63 0 -170.88 234.93 0 202.75 0 0 1.52 0 91.54 0c32.04,0 59.5,9.65 79.33,30.57 21.36,22.53 32.05,54.72 33.57,98.16 -1.52,41.84 -12.21,72.4 -32.04,93.33l-1.53 1.6c-21.35,22.53 -45.77,33.8 -76.28,33.8 -28.99,0 -51.88,-8.05 -67.13,-24.14 -18.31,-17.7 -33.57,-41.84 -42.73,-70.8l-9.15 -22.53 -160.89 0c-13.55,-70.86 -20.72,-143.98 -20.72,-218.8 0,-125.27 19.95,-245.87 56.75,-358.87zm51.67 848.68c53.62,43.1 115.05,65.29 183.04,65.29 93.06,0 170.88,-33.79 230.38,-98.15 59.09,-59.21 89.57,-142.57 92.82,-244.2 86.6,218.85 294.8,374.02 543.8,374.02 221.42,0 414.16,-122.64 514.06,-303.7 18.11,90.31 55.5,159.12 113.36,202.85 60.75,46.66 129.3,69.19 204.07,69.19l0 0c54.52,0 104.37,-14.48 144.86,-40.22 40.5,-25.75 71.66,-53.1 93.47,-83.68 4.1,-5.03 8.03,-10.23 11.78,-15.6 -167.06,434.49 -588.28,742.87 -1081.59,742.87 -464.74,0 -865.51,-273.69 -1050.05,-668.67l0 0.01zm1513.63 -1655.01l0.03 -0.04 -0.33 -0.08c-91.31,-36.33 -187.9,-62.18 -288.3,-76.21l-2.83 -0.75 -0.23 0.33c-56.22,-7.72 -113.59,-11.79 -171.93,-11.79 -692.44,0 -1253.76,561.32 -1253.76,1253.74 0,692.44 561.32,1253.76 1253.76,1253.76 692.43,0 1253.74,-561.32 1253.74,-1253.76 -6.53,-651.34 -450.97,-1023.26 -790.16,-1165.19zm544.38 593.92l-481.8 0 0 311.35c-86.04,-173.86 -255.72,-298.96 -456.44,-322.72 -4.71,-0.56 -9.42,-1.06 -14.16,-1.5l351.57 -500.66c255.27,95.85 467.72,279.21 600.83,513.53zm-428.63 664.57l135.31 0 0 0c6.23,-49.88 29.59,-91.73 107.48,-93.33 95.02,1.6 109.04,64.36 110.6,125.51l0 86.89c-1.56,61.14 -15.58,123.9 -110.6,125.51 -74.76,-1.6 -107.48,-38.61 -109.04,-125.51l0 0 -165.98 0c14.73,-37.93 25.63,-77.79 32.23,-119.07zm-579.34 -365.65c150.43,0 272.38,121.95 272.38,272.38 0,150.44 -121.95,272.39 -272.38,272.39 -150.44,0 -272.39,-121.95 -272.39,-272.39 0,-150.43 121.95,-272.38 272.39,-272.38z"/>
  </g>
 </g>
</svg>
