<?xml version="1.0" encoding="UTF-8"?>
<!DOCTYPE svg PUBLIC "-//W3C//DTD SVG 1.1//EN" "http://www.w3.org/Graphics/SVG/1.1/DTD/svg11.dtd">
<svg xmlns="http://www.w3.org/2000/svg" xml:space="preserve" width="25.6591mm" height="25.3655mm" version="1.1" style="shape-rendering:geometricPrecision; text-rendering:geometricPrecision; image-rendering:optimizeQuality; fill-rule:evenodd; clip-rule:evenodd" viewBox="0 0 2556.67 2527.42" xmlns:xlink="http://www.w3.org/1999/xlink" xmlns:xodm="http://www.corel.com/coreldraw/odm/2003">
  <defs>
    <style type="text/css">
      <![CDATA[
    .fil0 {fill:#ffffff80}
    .fil1 {fill:#106510d0}
   ]]>
    </style>
  </defs>
  <g id="Capa_1">
    <g>
      <circle class="fil0" cx="1259.08" cy="1262.85" r="1232.0" />
      <circle class="fil0" cx="2353.17" cy="417.12" r="172.0" />
      <path class="fil1" d="M2407.96 1333.4c0,-32.44 -9.43,-60.01 -15.7,-84.34 -14.13,-42.18 -37.67,-81.1 -67.51,-113.54 -21.98,-24.32 -50.25,-45.41 -83.22,-63.25l-1.57 0c-36.11,-14.6 -75.36,-24.32 -117.75,-24.32l-1.56 0c-43.97,0 -84.79,9.72 -122.47,27.57l0 -163.82 379.16 0c35.08,111.08 54.04,229.32 54.04,352 0,80.27 -8.09,158.67 -23.54,234.37 0.09,-3.97 0.13,-8.03 0.13,-12.22 0,-16.22 0,-118.4 0,-152.46zm-1692.13 -645.52l-468.1 0c200.73,-353.41 580.49,-591.84 1015.98,-591.84 37.09,0 73.76,1.8 109.96,5.18l-566.75 774.84c-64.76,89.24 -138.85,210.77 -134.63,387.64 0.33,13.79 1.14,27.47 2.34,41.02 -37.11,-64.9 -94.79,-109.15 -154.09,-135.13l195.29 -274.1 0 -207.61zm-562.59 214.1l321.16 0 -172.24 236.79 0 204.36 0 0 1.53 0 92.27 0c32.29,0 59.97,9.72 79.96,30.81 21.53,22.71 32.3,55.15 33.84,98.94 -1.53,42.17 -12.31,72.98 -32.29,94.07l-1.54 1.61c-21.52,22.71 -46.13,34.07 -76.88,34.07 -29.22,0 -52.29,-8.11 -67.67,-24.33 -18.45,-17.85 -33.84,-42.17 -43.06,-71.36l-9.23 -22.71 -162.16 0c-13.66,-71.42 -20.88,-145.13 -20.88,-220.53 0,-126.26 20.11,-247.82 57.2,-361.72zm52.08 855.42c54.04,43.44 115.96,65.81 184.49,65.81 93.8,0 172.24,-34.06 232.21,-98.93 59.55,-59.68 90.28,-143.7 93.56,-246.14 87.28,220.58 297.14,376.99 548.12,376.99 223.17,0 417.45,-123.61 518.14,-306.11 18.25,91.03 55.94,160.38 114.26,204.46 61.23,47.03 130.33,69.74 205.69,69.74l0 0c54.95,0 105.2,-14.6 146.01,-40.54 40.82,-25.96 72.23,-53.53 94.21,-84.35 4.14,-5.07 8.09,-10.31 11.88,-15.72 -168.38,437.94 -592.95,748.77 -1090.18,748.77 -468.43,0 -872.39,-275.86 -1058.39,-673.98zm2186.93 -1062.8l0 -6.72 -3.42 0c-11.81,-23.01 -24.28,-45.62 -37.42,-67.79l0.59 0.01c113.03,0 204.67,-91.64 204.67,-204.68 0,-113.03 -91.64,-204.67 -204.67,-204.67 -96.07,0 -176.68,66.21 -198.71,155.48 -119.71,-118.67 -263.03,-213.57 -422.31,-276.99l0.03 -0.04 -0.33 -0.08c-92.04,-36.62 -189.4,-62.67 -290.59,-76.81l-2.85 -0.76 -0.23 0.33c-56.67,-7.78 -114.5,-11.89 -173.29,-11.89 -697.94,0 -1263.71,565.78 -1263.71,1263.7 0,697.94 565.78,1263.71 1263.71,1263.71 697.93,0 1263.7,-565.78 1263.7,-1263.71 0,-204.73 -48.72,-398.06 -135.16,-569.1zm-112.57 -6.72l-485.63 0 0 313.83c-86.73,-175.24 -257.75,-301.33 -460.07,-325.28 -4.74,-0.57 -9.5,-1.07 -14.27,-1.51l354.36 -504.64c257.3,96.61 471.44,281.42 605.6,517.61zm-432.03 669.85l136.39 0 0 0c6.28,-50.28 29.82,-92.46 108.33,-94.07 95.77,1.61 109.9,64.88 111.48,126.5l0 87.58c-1.57,61.63 -15.7,124.89 -111.48,126.5 -75.36,-1.61 -108.33,-38.92 -109.9,-126.5l0 0 -167.3 0c14.85,-38.23 25.84,-78.41 32.48,-120.02zm404.05 -881.94c5.83,7.29 11.56,14.68 17.23,22.1 21.2,21.36 50.59,34.59 83.07,34.59 64.64,0 117.04,-52.4 117.04,-117.05 0,-64.64 -52.4,-117.04 -117.04,-117.04 -64.65,0 -117.05,52.4 -117.05,117.04 0,22.08 6.12,42.74 16.75,60.36zm-987.99 513.38c151.62,0 274.54,122.92 274.54,274.54 0,151.63 -122.92,274.55 -274.54,274.55 -151.63,0 -274.55,-122.92 -274.55,-274.55 0,-151.62 122.92,-274.54 274.55,-274.54z" />
    </g>
  </g>
</svg>
